# xmcd CD database file
#
# Track frame offsets:
#	150
#	10047
#	23547
#	37057
#	60525
#	75535
#	93535
#	119547
#	134790
#	155747
#	170252
#
# Disc length: 2538 seconds
#
# Revision: 0
# Processed by: cddbd v1.5.2PL0 Copyright (c) Steve Scherf et al.
# Submitted via: CDex 1.51
#
DISCID=8a09e80b
DTITLE=Eduardo Aquino - Shantala - Sinfonia para uma Nova Vida
DYEAR=1900
DGENRE=New Age
TTITLE0=Primeiros Passos 
TTITLE1=Shantala
TTITLE2=Ciranda
TTITLE3=Sinfonia para uma Nova Vida
TTITLE4=Um Sorriso de Bom Dia
TTITLE5=Acalanto dos Anjos
TTITLE6=Sorriso de Mãe
TTITLE7=Abraço de Pai
TTITLE8=Love in Drops
TTITLE9=Cantos e Contos
TTITLE10=Contando Estrelas
EXTD=
EXTT0=
EXTT1=
EXTT2=
EXTT3=
EXTT4=
EXTT5=
EXTT6=
EXTT7=
EXTT8=
EXTT9=
EXTT10=
PLAYORDER=
